<svg version="1.1" id="Layer_1" xmlns="http://www.w3.org/2000/svg" xmlns:xlink="http://www.w3.org/1999/xlink" x="0px" y="0px"
	 width="100%" viewBox="0 0 1428 1428" enable-background="new 0 0 1428 1428" xml:space="preserve">
<path fill="#000000" opacity="1.000000" stroke="none" 
	d="
M873.000000,1287.000122 
	C596.351562,1287.000122 320.203156,1287.000122 43.072834,1287.000122 
	C44.317863,1285.077515 45.218384,1283.650879 46.153942,1282.247437 
	C77.531395,1235.177368 108.942184,1188.129517 140.221466,1140.994263 
	C142.198410,1138.015259 144.202728,1136.910400 147.804047,1136.913086 
	C301.129303,1137.025635 454.454651,1137.027710 607.779968,1137.033936 
	C750.605957,1137.039795 893.431946,1137.035034 1036.257935,1137.035034 
	C1038.076172,1137.035034 1039.894531,1137.035156 1042.359863,1137.035156 
	C1041.536743,1135.558594 1041.013916,1134.448975 1040.341431,1133.438965 
	C1017.844055,1099.648071 995.296814,1065.890015 972.892395,1032.037598 
	C971.154663,1029.411987 969.379578,1028.825806 966.400085,1028.956543 
	C940.786804,1030.079346 915.166016,1031.843750 889.545898,1031.869629 
	C666.224243,1032.095703 442.902283,1032.000122 219.580414,1032.000122 
	C217.653229,1032.000122 215.726028,1032.000122 212.991516,1032.000122 
	C369.846497,796.725098 526.219360,562.173218 682.998535,327.011810 
	C800.838013,503.763733 918.278320,679.916870 1036.189575,856.776489 
	C1045.875366,851.711548 1055.679932,847.215088 1064.861572,841.684387 
	C1145.810669,792.924011 1195.522583,722.294189 1211.071777,628.872192 
	C1236.476318,476.237366 1137.448242,327.567627 986.794861,290.820312 
	C962.232056,284.828949 937.355042,281.980408 912.095337,281.985687 
	C768.269348,282.015717 624.443420,281.971863 480.617584,282.124084 
	C475.828033,282.129150 473.291168,280.571686 470.703979,276.693542 
	C439.545807,229.988663 408.188995,183.416321 376.884827,136.808823 
	C375.980865,135.462997 375.086609,134.110687 373.680756,132.000229 
	C375.505707,132.000229 376.577911,132.000168 377.650085,132.000229 
	C558.307312,132.011383 738.969055,131.257385 919.620178,132.312500 
	C1033.221069,132.975952 1132.795044,172.661285 1217.126465,248.778702 
	C1289.506714,314.109009 1335.485596,395.166473 1355.708008,490.572113 
	C1389.782349,651.330139 1330.853271,820.901184 1204.680176,926.359314 
	C1178.660767,948.106873 1150.665527,966.842102 1120.109253,982.645264 
	C1187.657227,1083.970337 1255.082153,1185.110718 1323.006470,1287.000122 
	C1172.637939,1287.000122 1023.068970,1287.000122 873.000000,1287.000122 
M605.323914,713.841614 
	C568.111877,769.679504 530.899902,825.517395 493.432129,881.739014 
	C620.129089,881.739014 745.994507,881.739014 872.585999,881.739014 
	C809.281799,786.786560 746.321533,692.350098 682.991943,597.359558 
	C656.995605,636.378479 631.381409,674.823792 605.323914,713.841614 
z"/>
</svg>